<?xml version="1.0" encoding="UTF-8" standalone="no"?>
<svg width="28px" height="22px" viewBox="0 0 28 22" version="1.1" xmlns="http://www.w3.org/2000/svg" xmlns:xlink="http://www.w3.org/1999/xlink">
    <!-- Generator: Sketch 3.7.1 (28215) - http://www.bohemiancoding.com/sketch -->
    <title>Group 6</title>
    <desc>Created with Sketch.</desc>
    <defs></defs>
    <g id="Page-1" stroke="none" stroke-width="1" fill="none" fill-rule="evenodd">
        <g id="Group-6">
            <g id="Group-5">
                <ellipse id="Oval-9-Copy" fill="#C7C7CB" cx="8.42998481" cy="5.05505151" rx="4.91101971" ry="5.05505151"></ellipse>
                <ellipse id="Oval-9" fill="#AAAAAC" cx="17.3134191" cy="6.19205298" rx="5.87408088" ry="6.04635762"></ellipse>
                <path d="M7.10852781,9.62286914 L7.10852781,10.7077258 C7.10852781,10.7077258 0.499175412,11.6588787 0.133992282,15.9649984 C0.133992282,15.9649984 0.0715875698,18.2822142 2.21553612,18.2822142 L9.14535483,18.2822142 L9.14535483,9.96077079 L7.10852781,9.62286914 Z" id="Path-4-Copy-2" fill="#C7C7CB"></path>
                <path d="M10.2893051,9.50106067 L10.2893051,10.5859174 C10.2893051,10.5859174 16.8986575,11.5370702 17.2638406,15.84319 C17.2638406,15.84319 17.3262453,18.1604058 15.1822968,18.1604058 L8.25247808,18.1604058 L8.25247808,9.83896232 L10.2893051,9.50106067" id="Path-4-Copy-3" fill="#C7C7CB"></path>
                <path d="M14.7534611,11.5696916 L14.7534611,12.867291 C14.7534611,12.867291 6.84800092,14.0049669 6.41120462,19.1555257 C6.41120462,19.1555257 6.33656221,21.9271523 8.90094353,21.9271523 L17.1897141,21.9271523 L17.1897141,11.9738565 L14.7534611,11.5696916 Z" id="Path-4" fill="#AAAAAC"></path>
                <path d="M25.4435853,11.5099338 L25.4435853,12.8075331 C25.4435853,12.8075331 17.5381251,13.945209 17.1013288,19.0957678 C17.1013288,19.0957678 17.0266864,21.8673945 19.5910677,21.8673945 L27.8798383,21.8673945 L27.8798383,11.9140986 L25.4435853,11.5099338 Z" id="Path-4-Copy" fill="#AAAAAC" transform="translate(22.490471, 16.688664) scale(-1, 1) translate(-22.490471, -16.688664) "></path>
            </g>
        </g>
    </g>
</svg>