<?xml version="1.0" encoding="utf-8"?>
<!-- Generator: Adobe Illustrator 18.0.0, SVG Export Plug-In . SVG Version: 6.00 Build 0)  -->
<!DOCTYPE svg PUBLIC "-//W3C//DTD SVG 1.1//EN" "http://www.w3.org/Graphics/SVG/1.1/DTD/svg11.dtd">
<svg version="1.1" id="Layer_1" xmlns="http://www.w3.org/2000/svg" xmlns:xlink="http://www.w3.org/1999/xlink" x="0px" y="0px"
	 viewBox="0 0 64 64" enable-background="new 0 0 64 64" xml:space="preserve">
<g>
	<circle cx="23" cy="23" r="15"/>
	<path d="M29.6,42H16.4C7.4,42,0,49.4,0,58.4V64h46v-5.6C46,49.4,38.6,42,29.6,42z"/>
	<path d="M42,22.4c0,1.1,0,2.2-0.2,3.2c1.2,0.3,2.4,0.4,3.6,0.4c7.2-0.2,12.8-6.3,12.6-13.4C57.8,5.4,51.7-0.2,44.6,0
		c-4.9,0.2-9.1,3-11.1,7.1C38.4,10.4,41.8,15.9,42,22.4z"/>
	<path d="M49.8,29.7h-9c-0.9,2.3-2.2,4.4-3.9,6.3C36,36.9,35,37.8,34,38.5c7,1.5,12.7,6.8,15,13.5h15v-7.7
		C64,36.3,57.6,29.7,49.8,29.7z"/>
</g>
</svg>
